<svg width="20" height="20" viewBox="0 0 20 20" fill="none" xmlns="http://www.w3.org/2000/svg">
<path d="M17.2522 9.41089L11.4188 3.57756C11.0934 3.25214 10.5659 3.25214 10.2405 3.57756C9.91509 3.90298 9.91509 4.43047 10.2405 4.75589L14.6513 9.16672L3.32967 9.16672C2.86967 9.16672 2.49634 9.54006 2.49634 10.0001C2.49634 10.4601 2.86967 10.8334 3.32967 10.8334L14.6513 10.8334L10.2405 15.2442C9.91509 15.5696 9.91509 16.0971 10.2405 16.4226C10.4034 16.5855 10.6163 16.6667 10.8297 16.6667C11.043 16.6667 11.2559 16.5855 11.4188 16.4226L17.2522 10.5892C17.5776 10.2638 17.5776 9.73631 17.2522 9.41089Z" fill="white"/>
</svg>
