<svg width="20" height="20" viewBox="0 0 20 20" fill="none" xmlns="http://www.w3.org/2000/svg">
<path d="M2.7405 10.5891L8.57384 16.4224C8.89925 16.7479 9.42675 16.7479 9.75217 16.4224C10.0776 16.097 10.0776 15.5695 9.75217 15.2441L5.34134 10.8333L16.663 10.8333C17.123 10.8333 17.4963 10.4599 17.4963 9.99994C17.4963 9.53994 17.123 9.16661 16.663 9.16661L5.34134 9.16661L9.75217 4.75577C10.0776 4.43036 10.0776 3.90286 9.75217 3.57744C9.58926 3.41452 9.37634 3.33327 9.16301 3.33327C8.94967 3.33327 8.73676 3.41452 8.57384 3.57744L2.7405 9.41077C2.41509 9.73619 2.41509 10.2637 2.7405 10.5891Z" fill="white"/>
</svg>
